<svg id="Layer_1" data-name="Layer 1" xmlns="http://www.w3.org/2000/svg" viewBox="0 0 289.93 334.75"><path d="M496.28,386.64A154.89,154.89,0,0,1,500,353.16a154.89,154.89,0,0,1,3.72,33.48c0,3.92-.2,7.61-.44,11.1,5.09-5.88,14.38-18.58,14.38-33.44,0-20.4-17.66-36.93-17.66-36.93s-17.63,16.53-17.63,37c0,14.83,9.3,27.57,14.38,33.44C496.48,394.25,496.28,390.56,496.28,386.64Z" transform="translate(-355.03 -327.37)"/><path d="M503.72,602.86A154.38,154.38,0,0,1,500,636.33a154.38,154.38,0,0,1-3.72-33.47c0-3.93.17-7.62.44-11.11-5.09,5.84-14.38,18.59-14.38,33.41,0,20.43,17.66,37,17.66,37s17.66-16.53,17.66-37c0-14.82-9.29-27.53-14.38-33.41C503.55,595.24,503.72,598.93,503.72,602.86Z" transform="translate(-355.03 -327.37)"/><path d="M449.72,411.78c-1.23-1.85-2.53-3.8-3.76-6a98.42,98.42,0,0,1-8.54-19.54,98.86,98.86,0,0,1,12.64,17.18c1.23,2.15,2.32,4.24,3.28,6.25.92-4.85,2-14.75-2.7-22.88-6.49-11.21-21.38-14.69-21.38-14.69s-4.44,14.65,2,25.86C436,406.14,445.07,410.17,449.72,411.78Z" transform="translate(-355.03 -327.37)"/><path d="M550.31,577.71c1.23,1.85,2.5,3.8,3.8,6a99.71,99.71,0,0,1,8.57,19.54A96.33,96.33,0,0,1,550,586.05c-1.23-2.15-2.33-4.24-3.28-6.25-.92,4.85-2,14.75,2.73,22.88,6.46,11.21,21.38,14.69,21.38,14.69s4.44-14.65-2.05-25.86C564.05,583.35,555,579.32,550.31,577.71Z" transform="translate(-355.03 -327.37)"/><path d="M403,492.7c-3.72-3.21-11.78-9.09-21.18-9.12-12.94,0-23.39,11.17-23.39,11.17s10.48,11.16,23.39,11.16c9.43,0,17.46-5.87,21.18-9.08-2.22.17-4.54.27-7,.27a98.39,98.39,0,0,1-21.22-2.35A98,98,0,0,1,396,492.39C398.45,492.39,400.81,492.49,403,492.7Z" transform="translate(-355.03 -327.37)"/><path d="M597,496.83c3.72,3.21,11.78,9.08,21.18,9.08,12.94,0,23.43-11.16,23.43-11.16s-10.49-11.17-23.43-11.17c-9.4,0-17.46,5.87-21.18,9.08,2.22-.17,4.58-.27,7-.27a98,98,0,0,1,21.22,2.36A95.49,95.49,0,0,1,604,497.1C601.55,497.1,599.19,497,597,496.83Z" transform="translate(-355.03 -327.37)"/><path d="M450,586a98.51,98.51,0,0,1-12.64,17.18,98.15,98.15,0,0,1,8.54-19.54c1.26-2.15,2.53-4.13,3.79-6-4.65,1.61-13.77,5.64-18.48,13.8-6.46,11.2-2.05,25.86-2.05,25.86s14.93-3.49,21.38-14.66c4.72-8.13,3.62-18.07,2.7-22.92A69.69,69.69,0,0,1,450,586Z" transform="translate(-355.03 -327.37)"/><path d="M550,403.48a98.24,98.24,0,0,1,12.68-17.19,96.23,96.23,0,0,1-8.58,19.54,68.63,68.63,0,0,1-3.79,5.95c4.68-1.61,13.77-5.64,18.48-13.77,6.46-11.2,2-25.86,2-25.86s-14.93,3.49-21.38,14.69c-4.68,8.16-3.66,18.07-2.7,22.89C547.68,407.71,548.78,405.63,550,403.48Z" transform="translate(-355.03 -327.37)"/><path d="M395.85,414.27c-17.66-10.21-40.82-3.21-40.82-3.21s5.5,23.57,23.2,33.75c12.87,7.41,28.52,5.74,36.14,4.27-3.15-1.54-6.46-3.21-9.84-5.16A155.14,155.14,0,0,1,377.41,424a154.49,154.49,0,0,1,30.84,13.53c3.38,1.94,6.49,4,9.4,5.94C415.08,436.06,408.73,421.68,395.85,414.27Z" transform="translate(-355.03 -327.37)"/><path d="M621.77,544.68c-12.87-7.41-28.52-5.73-36.14-4.27,3.15,1.54,6.46,3.22,9.84,5.16a156.48,156.48,0,0,1,27.16,19.95A154.43,154.43,0,0,1,591.78,552c-3.38-2-6.49-4-9.39-6,2.53,7.37,8.91,21.72,21.76,29.17C621.81,585.37,645,578.4,645,578.4S639.43,554.9,621.77,544.68Z" transform="translate(-355.03 -327.37)"/><path d="M377.37,565.55a156.25,156.25,0,0,1,27.12-20c3.39-1.94,6.7-3.62,9.88-5.16-7.62-1.46-23.3-3.14-36.14,4.27-17.66,10.18-23.2,33.75-23.2,33.75s23.16,7,40.82-3.21c12.88-7.41,19.23-21.83,21.76-29.17-2.9,2-6,4-9.39,6A156,156,0,0,1,377.37,565.55Z" transform="translate(-355.03 -327.37)"/><path d="M622.63,423.94a156.73,156.73,0,0,1-27.12,19.94c-3.39,1.95-6.7,3.66-9.84,5.16,7.62,1.47,23.29,3.14,36.1-4.27C639.47,434.56,645,411,645,411s-23.13-7-40.82,3.22c-12.88,7.44-19.23,21.82-21.76,29.13,2.87-1.95,6-4,9.39-5.94A156.89,156.89,0,0,1,622.63,423.94Z" transform="translate(-355.03 -327.37)"/><path d="M500,486.85s-44.1-40-72.28-36.51C481.86,478.76,500,583.73,500,583.73s5.33-94.28,72.28-133.39C536.51,443.78,500,486.85,500,486.85Z" transform="translate(-355.03 -327.37)"/><path d="M500,431.55a18.14,18.14,0,1,1-18.14,18.14A18.15,18.15,0,0,1,500,431.55Z" transform="translate(-355.03 -327.37)"/></svg>