<svg id="Layer_2" data-name="Layer 2" xmlns="http://www.w3.org/2000/svg" viewBox="0 0 63.92 63"><defs><style>.cls-1{stroke:#000;stroke-miterlimit:10;stroke-width:2.83px;}.cls-2{fill:#fff;}.cls-3{fill:#050505;}.cls-4{fill:#020202;}</style></defs><path class="cls-1" d="M64.5,35.75A29.33,29.33,0,0,1,34.92,64.83,29.34,29.34,0,0,1,5.39,35.7,29.34,29.34,0,0,1,35,6.61,29.42,29.42,0,0,1,64.14,31.19a26.79,26.79,0,0,1,.36,4.56.43.43,0,0,0,.86,0A30.31,30.31,0,0,0,34.83,5.65,30.32,30.32,0,0,0,4.27,35.72,30.32,30.32,0,0,0,34.8,65.81,30.12,30.12,0,0,0,65.36,35.75a.43.43,0,1,0-.86,0Z" transform="translate(-2.86 -4.23)"/><circle class="cls-2" cx="31.54" cy="31.37" r="29.42"/><path class="cls-3" d="M59.77,19.62c-1.39,2.14-5-.75-5.16.85-.86,6.77-10.33,3.61-10.33.84,0-1.69,2.58-5.08,3.44-4.23,3.11,3.06,6-4.41,6-4.41Z" transform="translate(-2.86 -4.23)"/><path d="M59.4,19.41c-.8,1.16-2.48.39-3.57.19a1.51,1.51,0,0,0-1.39.23,1.07,1.07,0,0,0-.26.64,6.91,6.91,0,0,1-.27,1.11c-.86,2.38-3.44,2.85-5.71,2.29a6.43,6.43,0,0,1-2.77-1.36A1.71,1.71,0,0,1,45,20.26a7.08,7.08,0,0,1,1.24-2c.21-.23.86-1,1.2-.85s.44.38.62.49a2.42,2.42,0,0,0,.86.32A2.44,2.44,0,0,0,50.48,18a7.1,7.1,0,0,0,2.63-2.91,17.52,17.52,0,0,0,1.07-2.28l-.72.18L58.7,19l.77.84c.35.42,1-.18.6-.59l-5.24-6-.77-.85a.43.43,0,0,0-.6,0,.42.42,0,0,0-.11.18l-.25.57a14.08,14.08,0,0,1-.75,1.44,6.07,6.07,0,0,1-2.42,2.67,1.51,1.51,0,0,1-1.47-.11c-.52-.32-.78-.76-1.47-.53a3.69,3.69,0,0,0-1.54,1.25A8.2,8.2,0,0,0,44.19,20a2.5,2.5,0,0,0,.32,2.87,6.4,6.4,0,0,0,2.74,1.69c2.24.78,5.16.73,6.73-1.26a5.14,5.14,0,0,0,1-2.1c0-.16,0-.62.16-.71s.57,0,.73.06c1.5.32,3.28.89,4.3-.63A.44.44,0,1,0,59.4,19.41Z" transform="translate(-2.86 -4.23)"/><path class="cls-4" d="M27.93,64.49c3,1-9.46-6.77-3.44-11.94,3.51-3,9.11-6.23,7.75-8.38-4.31-6.77,6-3.39,3.44-8.46-.86-1.7-7.75,0-13.77-1.7s-6-7.62-6-8.46c0-3.39,2.58-5.08,5.16-1.7s4.3,3.39,5.16,3.39c2.58,0,2.58-7.62,4.31-5.93C33,23.79,34,17.08,32.24,15.39c-4.91-4.83-1-9.12-3.32-8.75a27.81,27.81,0,0,0-16.47,9.59c-6.89,8.47-6.89,12.7-6.89,12.7,5.17,8.47,12.16,6.63,10.33,9.31-1.14,1.7,5.16,14.4-5.16,15.24A44.26,44.26,0,0,0,27.93,64.49Z" transform="translate(-2.86 -4.23)"/><path d="M27.82,64.91c.28.1.64.19.86,0s.13-.54,0-.78a16.4,16.4,0,0,0-1.82-1.91c-1.64-1.69-3.73-4-3.57-6.55C23.39,54,24.7,53,25.87,52q2.77-2,5.33-4.28c1-.94,2.18-2.33,1.39-3.72-.48-.85-1.46-2.24-.8-3.25a4,4,0,0,1,2.08-1.26,4.85,4.85,0,0,0,2.24-1.2,2.52,2.52,0,0,0-.1-2.87c-.7-1.14-2.79-1-3.94-1a60,60,0,0,1-7.46-.31c-2.22-.31-4.46-.85-6-2.54a8.62,8.62,0,0,1-2.27-6.53,3,3,0,0,1,1.29-2.49c.89-.42,2,.31,2.58,1a28.87,28.87,0,0,0,2.58,2.84,5.93,5.93,0,0,0,2,1.1,2.63,2.63,0,0,0,2.77-.39,8.28,8.28,0,0,0,1.65-3.52,11.87,11.87,0,0,1,.59-1.64,3.62,3.62,0,0,1,.27-.41c0-.05,0-.07.1,0,.45.33.81.74,1.43.74a1.53,1.53,0,0,0,1.24-.75,6.1,6.1,0,0,0,.75-4A5.07,5.07,0,0,0,33,15.57a4.72,4.72,0,0,0-.68-.8A8.52,8.52,0,0,1,31,13a8.37,8.37,0,0,1-.79-5,2.33,2.33,0,0,0-.1-1.38,1.07,1.07,0,0,0-1.21-.4,27.11,27.11,0,0,0-13.51,6.44,32.28,32.28,0,0,0-4.86,5.39,38.75,38.75,0,0,0-3.56,5.61,19.26,19.26,0,0,0-1.47,3.55,6,6,0,0,0-.32,1.63c0,.52.57,1.1.86,1.52A17.78,17.78,0,0,0,8.27,33a16.37,16.37,0,0,0,4.31,2.89,19.26,19.26,0,0,1,2.9,1.29,1,1,0,0,1,.21.21.2.2,0,0,1,0,.15c-.07.28-.29.52-.38.85a5.94,5.94,0,0,0,.17,2.41c.21,1.18.46,2.35.62,3.52.31,2.38.47,5.37-1.42,7.19a6.49,6.49,0,0,1-3.95,1.55.43.43,0,0,0-.43.43.41.41,0,0,0,.13.29,31,31,0,0,0,3,2.84,46.81,46.81,0,0,0,8.09,5.56,39.45,39.45,0,0,0,6.3,2.73c.53.18.75-.64.23-.84A42.62,42.62,0,0,1,12,54.14c-.32-.31-.64-.62-.94-1l-.3.72A7.75,7.75,0,0,0,15,52.37a5.88,5.88,0,0,0,1.87-3.1c.62-2.49.12-5.14-.35-7.62a14.55,14.55,0,0,1-.4-2.7.85.85,0,0,1,.15-.6,1.49,1.49,0,0,0,.26-1.1c-.18-.77-1.15-1.1-1.81-1.37a25.07,25.07,0,0,1-3.69-1.78,15.91,15.91,0,0,1-4.54-4.45A5.24,5.24,0,0,1,6,28.87c0-.07,0,.09,0,0s0-.08,0-.12v-.16a1.76,1.76,0,0,1,.07-.4,22.55,22.55,0,0,1,3.61-7.62,39.07,39.07,0,0,1,4.63-5.87,27.9,27.9,0,0,1,5.6-4.36,26.1,26.1,0,0,1,7.13-3A13,13,0,0,1,29,7h.25c.09,0,.07,0,0,0a1.11,1.11,0,0,1,0,.36,4,4,0,0,1-.06.84,8.74,8.74,0,0,0,.88,5A7.71,7.71,0,0,0,31,14.65c.34.43.77.79,1.09,1.24a3.85,3.85,0,0,1,.54,1.83,7.24,7.24,0,0,1-.12,2.08,2.46,2.46,0,0,1-.69,1.51c-.38.28-.73,0-1-.29a1,1,0,0,0-1.19-.27,2,2,0,0,0-.75,1,18.74,18.74,0,0,0-.62,1.78,17.32,17.32,0,0,1-.65,1.83,2.91,2.91,0,0,1-1,1.32c-.78.48-2.07-.11-2.72-.53a10.41,10.41,0,0,1-2.44-2.38,5.24,5.24,0,0,0-2.58-2.08C17,21.15,15.75,23,15.52,24.62a9.36,9.36,0,0,0,.11,2.94,8.5,8.5,0,0,0,6,6.77,27.4,27.4,0,0,0,7.75.9h3.34a6.51,6.51,0,0,1,2.19.29,1.68,1.68,0,0,1,.6,2.16,4.3,4.3,0,0,1-2.05,1.06,4.7,4.7,0,0,0-2.27,1.34,2.92,2.92,0,0,0,0,3,10.24,10.24,0,0,0,.54,1,1.31,1.31,0,0,1,.3.84,3.56,3.56,0,0,1-1.17,1.86A48.88,48.88,0,0,1,25.71,51c-1.34,1-2.74,2-3.17,3.73A5.46,5.46,0,0,0,23,58.41a21,21,0,0,0,4.49,5.66c.12.12.48.56.51.56s0,0,0-.1.33-.4.33-.35h0l-.29-.11C27.5,63.91,27.3,64.73,27.82,64.91Z" transform="translate(-2.86 -4.23)"/><path class="cls-3" d="M63.94,28.15c-.59-3.54-6.75,5-13.64,5-10.88,0,6.89,10.15,8.61,7.61,2.38-3.52,3.83,7.08,4.08,5.42C64.07,39.09,64.93,34,63.94,28.15Z" transform="translate(-2.86 -4.23)"/><path d="M64.35,28c-.4-2.19-2.77-.64-3.82.07-2.45,1.64-4.84,3.47-7.75,4.24a10,10,0,0,1-2.37.36,16.37,16.37,0,0,0-1.72.09,3.35,3.35,0,0,0-2,.79c-1,1.05.25,2.44,1,3.17a20,20,0,0,0,4.84,3.19,13.51,13.51,0,0,0,5.1,1.67,2,2,0,0,0,1.54-.43c.22-.23.35-.55.66-.68H60a1,1,0,0,1,.23.13,4.87,4.87,0,0,1,1.11,2.09c.31.85.55,1.76.8,2.64.12.39.23,1.29.72,1.44a.51.51,0,0,0,.6-.37.2.2,0,0,1,0-.07,14.86,14.86,0,0,0,.22-1.49q.13-.87.27-1.77a55.7,55.7,0,0,0,.86-12.16c-.08-1-.2-2-.36-2.91-.09-.54-.92-.31-.86.23a39.79,39.79,0,0,1,0,11.22c-.26,2.14-.6,4.23-.93,6.4a.93.93,0,0,0,0,.29h0c0-.22,1.33-.34.64-.15.08,0,0,.12,0,0h0c-.09-.26-.16-.51-.24-.77a16.49,16.49,0,0,0-1.72-4.7,1.64,1.64,0,0,0-1.54-.92,1.61,1.61,0,0,0-.86.53c-.1.11-.26.35-.3.4s0,0-.14.09a1.6,1.6,0,0,1-.53.09,4.22,4.22,0,0,1-.86-.07A12.77,12.77,0,0,1,54.74,40a24,24,0,0,1-5-2.65A11.27,11.27,0,0,1,48,35.82a2.75,2.75,0,0,1-.77-1.26.4.4,0,0,1,.11-.37,1.9,1.9,0,0,1,.44-.3,7.76,7.76,0,0,1,2.79-.3c2.93-.09,5.6-1.56,8-3.12,1-.67,2-1.39,3-2a6.1,6.1,0,0,1,1.06-.59,2.49,2.49,0,0,1,.44-.14h.2a.19.19,0,0,1,.14.13,1.47,1.47,0,0,1,.13.42C63.64,28.79,64.45,28.56,64.35,28Z" transform="translate(-2.86 -4.23)"/><path class="cls-4" d="M47.4,51.83l-.54,1.6s-3,4.82-.86,4.29,5.16-5.93,3.57-6.95S47.4,51.83,47.4,51.83Z" transform="translate(-2.86 -4.23)"/><path d="M47,51.72l-.27.85-.18.51a1.66,1.66,0,0,0-.06.21c0,.07-.08.11,0,0a10.72,10.72,0,0,0-.61,1,12.77,12.77,0,0,0-.92,2c-.17.51-.35,1.24.1,1.7s1.36.13,1.86-.18a7.46,7.46,0,0,0,1.9-1.9,10.46,10.46,0,0,0,1.34-2.54,3.53,3.53,0,0,0,.2-2.2,1.74,1.74,0,0,0-2.23-1l-.07,0A2.43,2.43,0,0,0,47,51.81a.44.44,0,0,0,.32.53.43.43,0,0,0,.54-.3,1.66,1.66,0,0,1,.56-.94.87.87,0,0,1,1.16.37s0,0,0,.05a3,3,0,0,1-.24,1.75,9,9,0,0,1-1.18,2A6.36,6.36,0,0,1,46.6,57a2.08,2.08,0,0,1-.75.36h-.23V57a6.32,6.32,0,0,1,.24-.85,13.77,13.77,0,0,1,.81-1.69,7.86,7.86,0,0,0,.62-.89c.22-.51.36-1.06.54-1.59S47.16,51.21,47,51.72Z" transform="translate(-2.86 -4.23)"/></svg>