<?xml version="1.0" encoding="utf-8"?>
<!-- Generator: Adobe Illustrator 24.2.0, SVG Export Plug-In . SVG Version: 6.00 Build 0)  -->
<svg version="1.1" id="Layer_2_1_" xmlns="http://www.w3.org/2000/svg" xmlns:xlink="http://www.w3.org/1999/xlink" x="0px" y="0px"
	 viewBox="0 0 278.5 298.8" style="enable-background:new 0 0 278.5 298.8;" xml:space="preserve">
<style type="text/css">
	.st0{fill:#FFFFFF;}
	.st1{fill:none;stroke:#FFFFFF;stroke-width:5.67;stroke-miterlimit:10;}
</style>
<g>
	<path class="st0" d="M248.3,231.6l-73.6,1.7l-10.6,0.2c-3.2,0.1-6,2.2-6.9,5.2c-5.8,21.4-25.1,36.7-46.1,40.1l8.1,10.4
		c6.5-12.6,11.8-29.8,6.1-43.5c-3-7.1-10-14-18.1-14.2c-5.6-0.2-11.2,0-16.8,0H39.6c-4,0-9.2,0.8-12.9-1.2
		c-4.3-2.3-5.3-6.4-5.3-10.7V46.3c0-7.5-2-19.5,8.2-21.3c5.5-1,11.9-0.2,17.5-0.2h188.4c5.9,0,15.3-1.6,19.9,2.9
		c4.8,4.7,2.9,15.3,2.9,21.4v97c0,24.9,0.2,49.8,0,74.7C258.3,226.6,254.5,231.4,248.3,231.6c-9.2,0.3-9.2,14.5,0,14.2
		c13.3-0.3,24.1-10.9,24.3-24.1c0.1-2,0-4,0-6V38.3c0-3.7,0-7.4-1.2-11c-3.4-10.2-12.8-16.5-23.5-16.7c-22.8-0.6-45.6,0-68.4,0H37.1
		c-1.9,0-3.8-0.1-5.7,0C18.6,11.1,8,20.5,7.1,33.4c-0.4,6.8,0,13.7,0,20.5v149.5c0,7.1-0.7,14.7,0.3,21.7
		c1.7,12.1,12.3,20.3,24.3,20.6c5,0.1,9.9,0,14.9,0h59.8c0.6,0,1.1,0,1.7,0s-0.2,0.1-0.6-0.1c-1.8-0.8,1.3,1.1,1.7,1.5
		c5.8,4.6,4.3,14.2,2.6,21c-0.9,3.6-2.1,7.2-3.5,10.7c-0.5,1.3,0.4-0.8-0.3,0.6c-0.2,0.4-0.4,0.9-0.6,1.4c-0.2,0.5-0.4,0.9-0.7,1.3
		c-3,5.8,1.9,11.4,8.1,10.4c26.3-4.3,49.3-24.7,56.1-50.1l-6.9,5.2l73.6-1.7l10.6-0.2C257.5,245.6,257.5,231.4,248.3,231.6z"/>
	<g>
		<path class="st0" d="M248.3,226.6c-17,0.4-33.9,0.8-50.9,1.1c-7.4,0.2-14.7,0.3-22.1,0.5c-3.2,0.1-6.4,0.1-9.6,0.2
			c-7.2,0.3-11.4,3.5-13.8,10.4c-6.4,18.9-22.7,31.8-42.2,35.2c-4.1,0.7-4.3,5.7-2.2,8.4c2.7,3.5,5.4,6.9,8.1,10.4
			c1.9,2.5,6.5,1.6,7.9-1c5.9-11.7,10.5-25,8.8-38.4c-1.4-11.2-8.3-22.5-19.6-25.9c-7.8-2.3-17-0.9-25.1-0.9c-6.4,0-12.7,0-19.1,0
			c-7.5,0-15,0-22.5,0c-4.7,0-12.8,1.5-16.7-0.5c-4.5-2.3-2.8-14.2-2.8-18.4c0-52.3,0-104.6,0-157c0-1.5,0-3,0-4.5
			c0-3.8-0.6-7.7,0.1-11.4c1.2-6.7,8.1-5.5,13.6-5.3c6.4,0.2,12.8,0.2,19.2,0.2c27.1,0,54.3,0,81.4,0c27.3,0,54.6,0,81.9,0
			c5.9,0,11.8,0.1,17.7-0.2c4-0.2,10.4-1.1,12.5,3.3c2.1,4.6,0.5,11.2,0.5,16.2c0,2.3,0,4.7,0,7c0,27.5,0,54.9,0,82.4
			c0,18.2,0.1,36.5,0.1,54.7c0,7.2,0,14.4-0.1,21.6c0,2.9,0.7,6.9-1,9.5c-1.8,2.7-4.7,2-7.4,2.8c-7.9,2.3-11,12.3-6.5,18.9
			c5.7,8.4,19,4.4,25.9-0.2c10-6.7,13.2-17.1,13.2-28.6c0-5.4,0-10.7,0-16.1c0-28.2,0-56.4,0-84.6c0-24.5,0-49,0-73.5
			c0-1.6,0-3.1,0-4.7c0-11.7-3.8-22.3-14.3-28.5C252,3.2,237,5.3,224.5,5.4c-15,0-30,0.2-45,0.3c-46.4,0-92.8,0-139.2,0
			c-3.8,0-7.7-0.2-11.5,0.2C17.9,7.1,8.2,14,4.1,24.3c-3.7,9.3-2,20.1-2,29.9c0,2.3,0,4.6,0,7c0,27.3,0,54.6,0,81.8
			c0,20.1,0.1,40.2,0,60.4c-0.1,12-1.9,25,5.7,35.3c7.2,9.7,18.1,12.2,29.6,12.2c12.7,0,25.5-0.1,38.2-0.1c7.1,0,14.1,0,21.2,0
			c2.4,0,4.8,0,7.3,0c0.6,0,3.7,0.4,1.7-0.6c1.3-3,2.6-6.1,3.9-9.1c-0.4,0-0.8-0.1-1.2-0.3c-4.4-1.6-7.5,3.8-5.6,7.3
			c0.9,1.7,2.6,2.1,3.8,3.3c1.9,2,2,5,1.9,7.5c-0.3,6.5-2.7,13-5,19c-2,5.2,6.7,9,9.1,3.9c0.2-0.5,0.4-1,0.7-1.5
			c2.1-5.2-6.8-9-9.1-3.9c-1.9,4.2-4,8.1-2.5,12.8c1.3,4.3,5,7.3,9.4,8.2c4.7,1,10.1-0.8,14.6-2.2c4.8-1.5,9.4-3.5,13.8-5.9
			c17.6-9.6,31.2-26.1,36.6-45.5c1.1-3.9-3.7-8.4-7.3-5.6c-2.3,1.7-4.6,3.5-6.9,5.2c-3.7,2.8-2.9,9.4,2.5,9.3
			c15.2-0.3,30.4-0.7,45.7-1c8.2-0.2,16.3-0.4,24.5-0.5c5.2-0.1,10.6,0.3,15.7-0.5C264.4,248.4,262.6,227.1,248.3,226.6
			c-6.4-0.2-6.4,9.8,0,10c2.8,0.1,2.2,3.5,0,4.1c-2.8,0.8-6.9,0.2-9.9,0.2c-3.4,0.1-6.8,0.2-10.2,0.2c-16.7,0.4-33.4,0.7-50,1.1
			c-4.7,0.1-9.3,0.2-14,0.3c0.8,3.1,1.7,6.2,2.5,9.3c2.3-1.7,4.6-3.5,6.9-5.2c-2.4-1.9-4.9-3.8-7.3-5.6c-3.9,13.6-12.2,25.5-23.5,34
			c-5.4,4.1-11.5,7.4-17.9,9.7c-3.1,1.1-6.5,2.3-9.8,2.6c-5.2,0.5-4-2.5-2.4-6c-3-1.3-6.1-2.6-9.1-3.9c0.1-0.3,0.2-0.6,0.4-0.9
			c3,1.3,6.1,2.6,9.1,3.9c2.9-7.4,5.7-15.6,5.4-23.7c-0.1-3.4-0.9-6.9-2.7-9.9c-0.9-1.5-2.1-2.7-3.4-3.7c-0.4-0.3-0.8-0.6-1.2-0.9
			c-1.3-0.8-0.7-1.3,0.3,0.6c-1.9,2.4-3.8,4.9-5.6,7.3c0.4,0.2,0.8,0.3,1.2,0.3c5.2,0.7,9.3-6.2,3.9-9.1c-2.9-1.6-8.6-0.7-11.9-0.7
			c-7.1,0-14.2,0-21.4,0c-11.5,0-23.1-0.1-34.6,0c-11.2,0.1-24,0.4-29.3-11.7c-3.4-7.9-1.6-18-1.6-26.4c0-7.7,0-15.5,0-23.2
			c0-29.5,0-59,0-88.6c0-10.6,0-21.2,0-31.9c0-1.7,0-3.4,0-5.1c0-10.9-2.9-24.8,6.2-33.1c7.6-6.9,18.9-5.3,28.4-5.3
			c12,0,24.1,0,36.1,0c28.3,0,56.5,0,84.8,0c10.5,0,20.9,0,31.4-0.1c15.6-0.1,31.3-0.4,46.9,0.1c5.3,0.1,10.2,1.1,14.5,4.4
			c5.9,4.7,7.1,11.2,7.2,18.3c0.1,17.1,0,34.3,0,51.4c0,30.1,0,60.1,0,90.2c0,10,0,19.9,0,29.9c0,10,1,20.7-8.2,27.3
			c-2.1,1.5-10,5.7-12.5,3.4c-2.5-2.3,1.2-3.8,2.8-4c4.7-0.7,8.8-3,11.3-7.1c3.5-6,2.4-13.8,2.4-20.4c0.1-21.9-0.1-43.8-0.1-65.8
			c0-26.4,0-52.9,0-79.3c0-4.3,0-8.6,0-12.9c0-5.7,0.8-11.4-0.1-17c-2.4-16.2-18-14.2-30.5-14.2c-21.8,0-43.6,0-65.3,0
			c-29.7,0-59.5,0-89.2,0c-9,0-18,0-27,0c-10.7,0-26.5-3.8-32.6,7.3c-4,7.4-2.2,17.3-2.2,25.5c0,10,0,20,0,30c0,30.3,0,60.5,0,90.8
			c0,11.6,0,23.2,0,34.8c0,6.2-1,14.5,1.7,20.2c4.3,8.8,13.7,8.3,22.1,8.2c5.2,0,10.4,0,15.6,0c11.5,0,23.1,0,34.6,0
			c6.1,0,13.8-1.3,19.7,0.5c5.8,1.8,9.8,7.4,11.5,13c3.7,12.2-1.2,25.8-6.7,36.6c2.6-0.3,5.2-0.7,7.9-1c-2.7-3.5-5.4-6.9-8.1-10.4
			c-0.7,2.8-1.5,5.6-2.2,8.4c16.4-2.9,31.2-12.1,41-25.6c2.3-3.1,4.2-6.5,5.7-10c1.3-2.9,1.9-8.8,5.1-9.7c3.1-0.9,7.3-0.2,10.6-0.2
			c17.5-0.4,35.1-0.8,52.6-1.2c7-0.2,13.9-0.3,20.9-0.5C254.7,236.5,254.7,226.5,248.3,226.6z"/>
	</g>
</g>
<path class="st0" d="M209.6,176.8h-95.2c-14.3,0-28.6,0.1-42.9,0c-8.2,0-14.7-5.1-15-13.8c-0.2-6.9,0-13.8,0-20.6v-30.6
	c0-6.8-1.3-15.1,4-20.4c4.3-4.3,9.6-4,15-4h130c6.5,0,12.9,0.9,16.2,7.6c2.6,5.4,1.4,13.4,1.4,19.2c0,16.3,0.8,32.8,0,49.1
	C222.9,170.7,217,176.7,209.6,176.8c-5.8,0.2-5.8,9.2,0,9c13.1-0.5,22.4-10.6,22.5-23.5c0.1-8.6,0-17.2,0-25.7v-30.5
	c0-9.9-2-19.4-11.5-24.7c-5.4-3-11-2.9-16.9-2.9h-89.3c-14.6,0-29.2-0.2-43.7,0C58.8,78.7,48.7,87,47.6,99
	c-0.7,6.8-0.1,13.8-0.1,20.6v32.9c0,7.8-0.9,16.1,3.5,22.9c8.7,13.5,26.6,10.4,40.4,10.4h118.1C215.3,185.8,215.3,176.8,209.6,176.8
	z"/>
<polygon class="st0" points="62.9,64.2 36.5,110.8 239.6,110.8 216,64.2 "/>
<path class="st1" d="M125,132.2h34.5c2.1,0,3.8,1.7,3.8,3.8v39.8c0,2.1-1.7,3.8-3.8,3.8H125c-2.1,0-3.8-1.7-3.8-3.8v-39.8
	C121.2,133.9,122.9,132.2,125,132.2z"/>
</svg>
