<svg xmlns="http://www.w3.org/2000/svg" viewBox="0 0 931.58 931.75"><defs><style>.cls-1{fill:#fff;}</style></defs><g id="Layer_2" data-name="Layer 2"><path class="cls-1" d="M831.5,81.17c-87-55.92-215.8-30-215.8-30s-154.51,64.26-169,115.76c-22.12,78.75.68,141-30.45,207.25-38.68,82.35,9.59,99.35-50.39,160.19-6.05,6.13-23.39,26.26-37.88,31.18-17.16,5.81-31.38-3-33.21,13.94-8.63,79.7-47.16,63.1-47.16,63.1-15.27,4-42.23,32.42-53.24,53.54-10.13,19.44-45.14,19-63.65,38.78C110,757,106,798.4,101.52,802c-22,17.3-58.45,20.59-71.08,61.82-5.57,18.2,9.66,75.54,9.66,75.54l96.82,7L486.11,594.71l41.24-18.77s33.61,18,46.95-8.83C589.13,537.29,706,560.62,706,560.62S907,552.33,924.1,341.74C938.7,162.34,887.07,116.88,831.5,81.17ZM804.77,214.71a43.31,43.31,0,0,1-1.28,7.83A81,81,0,0,1,801.57,237c-1.58,7.05-5.16,14.15-13.17,14.68a5,5,0,0,1-4.82-3.67c-.05-.27-.09-.55-.13-.84-8.14,2.63-17.36,3-25.67,2.35-9.64-.75-16.8-4.08-22.81-11.82-10.62-13.7-15.66-31.88-7.9-48,7.26-15,25-32.43,43.09-25,6.79,2.8,12.24,8.08,16.77,13.91a35.28,35.28,0,0,1,8.05,4.59C803.84,190.24,805.52,204.2,804.77,214.71Z" transform="translate(-23.65 -22.85)"/></g><g id="Layer_1" data-name="Layer 1"><path d="M647.5,24.2Q555.25,36.5,489.1,103c-24.6,24.8-39.9,46.1-53.7,74.7-26.6,56.1-34.1,120.6-20.2,178.7l3.3,13.3-12,8.9c-27,19.7-32.8,28-33,46.6,0,11.8,3.6,20.8,13.1,31.3l5.6,6.6-19.1,19.5c-20.2,20.6-19.1,18.8-34.6,57.6l-4.4,10.9-22.8,4.8c-34.8,7.1-37,9.3-40.2,44.8-1.3,13.1-3.1,24-4.4,25.3-1.5,1.3-10.7,2.7-22.9,3.6-23.1,1.5-32.6,4.4-38,12-2.2,3.3-5.5,13.7-7.8,26.4-2.4,11.5-4.8,21.3-5.5,22-.6.5-10.4,2.5-21.9,4.4-11.3,1.6-22.9,4.4-25.9,5.8-9.1,4.9-38.6,36.1-42.4,45-1.8,4.6-4.9,16.6-6.6,26.8s-3.8,19.5-4.6,20.6c-.8,1.3-12.6,5.5-26.5,9.3-41.7,11.7-39.5,7.2-40.6,79-1,61-.6,63,11.1,70.1,5.5,3.5,9.5,3.6,59.4,3.6,35,0,56.1-.7,61-2.2,6.6-1.8,31-25.5,186.8-180.8L521.7,592.8l10,6c8.2,5.1,11.7,6.2,20.4,6.2,11.7,0,21.9-3.5,28.4-9.6,2.4-2.2,9.6-11.1,16-19.8,11.7-15.7,11.8-15.7,17.7-14,23.9,6.9,64.3,10,92.3,7.3,122.7-12.2,218.2-97.8,244.4-219.4,5.8-27,5.8-79.4-.2-106.7-12-56.1-35.5-99.4-75.6-139.3-40.6-40.4-83.8-63.9-138.6-75.6C715.6,23.3,668.1,21.3,647.5,24.2Zm66,29.1C794,64.2,863.2,112.7,899.4,183.7c11.3,22.2,17.1,38.2,22.6,62.6,6,27.3,6,72.5,0,99.8-9.6,43.3-28.2,80.1-56.1,111.5-62.3,69.7-154.3,98-244.9,75.2-10.2-2.5-20.2-4.2-22.6-3.6s-9.5,8.2-17.3,18.8c-24.4,33-26.9,33.9-43,18.7-9.3-8.7-11.8-10-19.8-9.1-2.2.2-79,75.6-187.6,184.1l-184,183.8H52.9V888.3c0-20.4.5-40.8,1.1-45.3l1.1-8.2,24.8-6.9c25.5-7.3,32.8-11.3,37.5-20.6,1.3-2.5,4.4-14.9,6.6-27.3l4.2-22.6,13.5-15.1c7.3-8.2,14.8-15.5,16.6-16,1.6-.6,13.1-2.5,25.1-4.6,32.8-5.1,35.3-7.7,41.5-40.1l4-21.1,10.7-1.3c6-.6,17.3-1.6,25-2.4,15.7-1.3,23.7-5.3,29-14.6,2.2-3.6,4-13.3,5.5-29.1,1.1-13.1,2.7-24.2,3.3-25s10.2-3.1,21.1-5.1c31-6,32.2-7.1,44.8-39l9.5-23.9,25.3-25.7c31.1-31.9,31-31.5,12.4-50.6-10.4-10.7-12.7-14.2-12.7-19.1,0-6.9,2-8.9,26-26.6,9.6-7.1,18.3-14.5,19.6-16.9,2-3.5,1.5-7.3-2.5-23.9-13.1-52.3-10-104,9.5-152.4C496.7,101.9,604.9,38.4,713.5,53.3Z" transform="translate(-23.65 -22.85)"/><path d="M747.9,148.9a64.9,64.9,0,0,0-28.6,18.2c-8.7,9.5-11.7,14.8-15.1,26.2-9.3,31.1,5.8,63.7,36.1,77.6,33,14.9,70.5.7,86.1-33,4.4-9.3,5.1-13.3,5.1-26.4s-.7-17.1-5.1-26.4C812.2,154.6,779,139.5,747.9,148.9Zm35.5,30.5a48.39,48.39,0,0,1,13.5,12c4.8,6.7,5.5,9.3,5.5,19.8,0,14.6-4.6,23.5-16,31-6.2,4.2-9.5,4.9-19.5,4.9s-13.3-.7-19.5-4.9c-11.5-7.5-16-16.4-16-31,0-10.6.7-13.1,5.5-19.8,6.9-9.8,18.8-16.2,30-16.2a35.47,35.47,0,0,1,16.5,4.2Z" transform="translate(-23.65 -22.85)"/></g></svg>