<?xml version="1.0" encoding="utf-8"?>
<!-- Generator: Adobe Illustrator 24.2.0, SVG Export Plug-In . SVG Version: 6.00 Build 0)  -->
<svg version="1.1" xmlns="http://www.w3.org/2000/svg" xmlns:xlink="http://www.w3.org/1999/xlink" x="0px" y="0px"
	 viewBox="0 0 467.2 499.8" style="enable-background:new 0 0 467.2 499.8;" xml:space="preserve">
<style type="text/css">
	.st0{fill:#FFFFFF;}
</style>
<g id="Layer_3">
	<path class="st0" d="M82.2,349.7l-76.3-1.2c0,0-2-200.1,6.2-319.7C13.3,12.4,42.7,7.9,42.7,7.9h265.2c0,0,74,0,71.3,107.3
		c-1.4,56.5-1.8,195.7,0.1,276.4c0.5,22,84.5-8,79.8,9.4c-7.6,28.1,4.7,61.4-15.5,78.8c-19.7,17.1-265.3,11.8-301.3,13.4
		c-23.1,1-33.6,0.5-46.5-16.9C73.6,446.2,82.2,349.7,82.2,349.7z"/>
</g>
<g id="Layer_2_1_">
	<g>
		<g>
			<g>
				<path d="M80.7,343.6c-25,0-50.1,0-75.1,0c2,2,4,4,6,6c0-35.2,0-70.3,0-105.5c0-53.6,0-107.2,0-160.7c0-9.8-0.5-19.9,0-29.7
					c0-0.6,0.4-3.3,0.1-1.5c0.3-2.1,0.7-4.2,1.1-6.3c1.2-5.7,2.9-11.3,5.6-16.5c6.4-12.5,18.3-20.5,32.7-16.1
					c12.5,3.9,19,17.3,22.3,29c0.7,2.3,1.2,4.7,1.7,7.1c0.2,0.8,0.3,1.6,0.4,2.5c0.1,0.6,0.3,3.1,0.1,0.8c0,0.6,0.1,1.1,0.1,1.6
					c-0.1,10.7,0,21.3,0,32c0,50.4,0,100.9,0,151.3c0,53.7,0,107.4,0,161c0,14.7,0,29.5,0,44.2c0,8.1,0.3,15.9,3.3,23.7
					c4.5,11.6,13.1,21,24.3,26.4c14.7,7.1,30.7,7.2,46.7,7.2c29.4,0,58.8,0,88.2,0c53.7,0,107.4,0,161.1,0c8.3,0,16.5-0.6,24.5-3.2
					c22.1-7.1,36.9-25.3,41.8-47.8c4-18.4,2.4-37.4-0.8-55.7c-0.5-2.6-3.3-4.4-5.8-4.4c-32,0-64,0-96,0c-50.6,0-101.1,0-151.7,0
					c-11.6,0-23.2,0-34.8,0c-3,0-6.3,2.8-6,6c0.7,7.4,0,14.7-1.8,21.6c-3.5,13.2-12.4,20.8-26.4,20.2c-7.7-0.3-7.7,11.7,0,12
					c17.9,0.7,31.4-9.3,37-26c2.9-8.7,4-18.7,3.2-27.8c-2,2-4,4-6,6c32,0,64,0,96,0c50.6,0,101.1,0,151.7,0c11.6,0,23.2,0,34.8,0
					c-1.9-1.5-3.9-2.9-5.8-4.4c4.7,26.9,5.8,63.1-17.6,80.9c-6.9,5.3-13,7.8-21.4,9.5c-0.7,0.1-1.4,0.3-2.2,0.4
					c-0.5,0.1-3.2,0.4-1.2,0.2c-1.2,0.2-2.5,0.3-3.8,0.4c-1.5,0.1-3,0.1-4.5,0.1c-43.6-0.2-87.1,0-130.7-0.1c-32.6,0-65.2,0-97.8,0
					c-11.4,0-22.8,0-34.2,0c-15.6,0-32.6-2.8-43.4-15c-3.1-3.4-5.4-7.8-6.7-11.5c-0.7-1.9-1.2-3.8-1.6-5.8c-0.2-0.8-0.3-1.5-0.4-2.3
					c-0.2-1.5,0.1,1.4,0,0c0-0.4-0.1-0.7-0.1-1.1c-0.1-1.9-0.1-3.8-0.1-5.8c0-12,0-24.1,0-36.1c0-51.6,0-103.3,0-154.9
					c0-52.7,0-105.4,0-158.1c0-26.2,3.8-54.5-11.2-77.8C67.6,5.6,52.7-2.2,36.1,0.7c-15,2.6-25,14.7-30.5,28
					c-4.5,10.9-6,21.8-6,33.4c0,46.9,0,93.7,0,140.6c0,46.4,0,92.8,0,139.1c0,2.6,0,5.2,0,7.8c0,3.2,2.7,6,6,6c25,0,50.1,0,75.1,0
					C88.4,355.6,88.4,343.6,80.7,343.6L80.7,343.6z"/>
			</g>
		</g>
		<g>
			<g>
				<path d="M44.2,12.1c44.3,0,88.7,0,133,0c42,0,84.2,1,126.2,0c1.5,0,3-0.1,4.5-0.1c1.2,0,2.3,0.1,3.5,0.2c0.5,0,3,0.4,1,0.1
					c1,0.1,1.9,0.3,2.9,0.5c9.5,1.8,16.5,4.7,24.4,10.3c27.8,19.9,33.2,60.5,33.3,92.5c0.1,42.6,0,85.3,0,127.9
					c0,49.7,0,99.5,0,149.2c0,0.9,0,1.8,0,2.6c0,7.7,12,7.7,12,0c0-13.3,0-26.7,0-40c0-30,0-59.9,0-89.9c0-31.5,0-62.9,0-94.4
					c0-17.9,0-35.7,0-53.6c0-31.6-4.3-65.9-24.8-91.3C347.6,10.7,328.8,1.1,309,0c-8.2-0.4-16.6,0-24.8,0c-26.9,0-53.8,0-80.8,0
					c-32.2,0-64.4,0-96.6,0C86.9,0,67,0,47.2,0c-1,0-2,0-3,0C36.5,0.1,36.5,12.1,44.2,12.1L44.2,12.1z"/>
			</g>
		</g>
	</g>
</g>
</svg>
