<svg id="Layer_1" data-name="Layer 1" xmlns="http://www.w3.org/2000/svg" viewBox="0 0 395.82 222.48"><defs><style>.cls-1{fill:none;stroke:#000;stroke-miterlimit:10;stroke-width:9.92px;}</style></defs><polygon class="cls-1" points="321.66 132.67 321.66 68.82 255.42 68.82 255.42 4.96 4.96 4.96 4.96 71.82 4.96 138.67 4.96 217.52 390.86 217.52 390.86 132.67 321.66 132.67"/><path d="M41.26,157.77h19A18.63,18.63,0,0,1,67.39,159a9.38,9.38,0,0,1,6.1,9.25,9.14,9.14,0,0,1-.8,3.93A7.45,7.45,0,0,1,70.43,175a9.84,9.84,0,0,1-3.54,1.67v.05a8.75,8.75,0,0,1,5.38,3,9.14,9.14,0,0,1,1.92,6,10.16,10.16,0,0,1-1.58,5.73,9.61,9.61,0,0,1-4.55,3.63,18.84,18.84,0,0,1-7.25,1.24H41.26Zm17,15.59a4.34,4.34,0,0,0,2.08-.48,3.16,3.16,0,0,0,1.36-1.32,4.19,4.19,0,0,0,.45-2,3.37,3.37,0,0,0-1.06-2.66,4.18,4.18,0,0,0-2.88-.94H52.82v7.42Zm.11,14.79a5.51,5.51,0,0,0,2.29-.43,3.14,3.14,0,0,0,1.47-1.26,4,4,0,0,0,.5-2.07,4,4,0,0,0-1.12-3,4.4,4.4,0,0,0-3.19-1.08H52.82v7.85Z" transform="translate(-2.14 -1.48)"/><path d="M85.24,195.74a13.2,13.2,0,0,1-5.81-5.22,15.84,15.84,0,0,1-2-8.18V157.77H89v23.77a7.78,7.78,0,0,0,.61,3.2,4.89,4.89,0,0,0,1.81,2.15,5,5,0,0,0,2.8.78,5.34,5.34,0,0,0,2.93-.75A5.06,5.06,0,0,0,99,184.77a7.52,7.52,0,0,0,.67-3.23V157.77h11.56v24.57a15.66,15.66,0,0,1-2,8.18,13.34,13.34,0,0,1-5.78,5.22,20.85,20.85,0,0,1-9.19,1.83A20.56,20.56,0,0,1,85.24,195.74Z" transform="translate(-2.14 -1.48)"/><path d="M122.49,196.09a12.76,12.76,0,0,1-8.13-11.32L124.75,183a7.94,7.94,0,0,0,1.07,3.29,5.57,5.57,0,0,0,2.29,2.12,6.94,6.94,0,0,0,3.14.73,6.53,6.53,0,0,0,2.61-.49,4.32,4.32,0,0,0,1.76-1.29,2.86,2.86,0,0,0,.64-1.83,2.61,2.61,0,0,0-1.14-2.15,10.17,10.17,0,0,0-3.65-1.45l-4.21-1q-6.3-1.29-9.14-4.09a10.47,10.47,0,0,1-2.91-7.69,11.69,11.69,0,0,1,1.9-6.7,12.18,12.18,0,0,1,5.32-4.35,19.45,19.45,0,0,1,8-1.54,18.22,18.22,0,0,1,7.17,1.37,12.82,12.82,0,0,1,5.2,3.93,10.93,10.93,0,0,1,2.23,6l-10.17,2a6.35,6.35,0,0,0-.75-2.61,4.71,4.71,0,0,0-1.65-1.77,4.46,4.46,0,0,0-2.35-.62,4.6,4.6,0,0,0-2,.43,3.28,3.28,0,0,0-1.39,1.16,3,3,0,0,0-.48,1.69,2.62,2.62,0,0,0,1.1,2.18,9.29,9.29,0,0,0,3.49,1.37l4.31.91q6.24,1.29,9.19,4.09a9.92,9.92,0,0,1,2.91,7.69,12.11,12.11,0,0,1-2.05,7.05,12.92,12.92,0,0,1-5.76,4.52,22.32,22.32,0,0,1-8.71,1.56A21.32,21.32,0,0,1,122.49,196.09Z" transform="translate(-2.14 -1.48)"/><path d="M150.28,157.77h11.56v38.56H150.28Z" transform="translate(-2.14 -1.48)"/><path d="M166.69,157.77h13.48l12.2,25h.11v-25H203v38.56H189.65L177.4,171.48h-.11v24.85h-10.6Z" transform="translate(-2.14 -1.48)"/><path d="M207.88,157.77h25v9.14H219v5.86h11.77v7.85H219v6.57H233.4v9.14H207.88Z" transform="translate(-2.14 -1.48)"/><path d="M243.5,196.09a12.76,12.76,0,0,1-8.13-11.32L245.76,183a7.94,7.94,0,0,0,1.07,3.29,5.51,5.51,0,0,0,2.29,2.12,6.91,6.91,0,0,0,3.14.73,6.6,6.6,0,0,0,2.61-.49,4.39,4.39,0,0,0,1.76-1.29,2.86,2.86,0,0,0,.64-1.83,2.59,2.59,0,0,0-1.15-2.15,10.09,10.09,0,0,0-3.65-1.45l-4.21-1q-6.28-1.29-9.13-4.09a10.43,10.43,0,0,1-2.91-7.69,11.77,11.77,0,0,1,1.89-6.7,12.21,12.21,0,0,1,5.33-4.35,19.42,19.42,0,0,1,8-1.54,18.22,18.22,0,0,1,7.17,1.37,12.72,12.72,0,0,1,5.19,3.93,10.94,10.94,0,0,1,2.24,6l-10.18,2a6.34,6.34,0,0,0-.74-2.61,4.71,4.71,0,0,0-1.65-1.77,4.46,4.46,0,0,0-2.35-.62,4.6,4.6,0,0,0-2,.43,3.28,3.28,0,0,0-1.39,1.16,3,3,0,0,0-.48,1.69,2.64,2.64,0,0,0,1.09,2.18,9.43,9.43,0,0,0,3.49,1.37l4.32.91q6.24,1.29,9.19,4.09a10,10,0,0,1,2.91,7.69,12,12,0,0,1-2.06,7.05,12.84,12.84,0,0,1-5.75,4.52,22.32,22.32,0,0,1-8.71,1.56A21.32,21.32,0,0,1,243.5,196.09Z" transform="translate(-2.14 -1.48)"/><path d="M278,196.09a12.76,12.76,0,0,1-8.13-11.32L280.23,183a8.09,8.09,0,0,0,1.07,3.29,5.57,5.57,0,0,0,2.29,2.12,7,7,0,0,0,3.15.73,6.6,6.6,0,0,0,2.61-.49,4.35,4.35,0,0,0,1.75-1.29,2.86,2.86,0,0,0,.64-1.83,2.61,2.61,0,0,0-1.14-2.15A10.17,10.17,0,0,0,287,182l-4.21-1q-6.28-1.29-9.14-4.09a10.42,10.42,0,0,1-2.9-7.69,11.77,11.77,0,0,1,1.89-6.7,12.16,12.16,0,0,1,5.33-4.35,19.39,19.39,0,0,1,8-1.54A18.21,18.21,0,0,1,293.1,158a12.82,12.82,0,0,1,5.2,3.93,11,11,0,0,1,2.24,6l-10.18,2a6.2,6.2,0,0,0-.75-2.61,4.63,4.63,0,0,0-1.65-1.77,4.42,4.42,0,0,0-2.34-.62,4.64,4.64,0,0,0-2,.43,3.31,3.31,0,0,0-1.38,1.16,3,3,0,0,0-.48,1.69,2.61,2.61,0,0,0,1.09,2.18,9.36,9.36,0,0,0,3.49,1.37l4.31.91q6.24,1.29,9.2,4.09a10,10,0,0,1,2.9,7.69,12,12,0,0,1-2.05,7.05,12.92,12.92,0,0,1-5.76,4.52,22.32,22.32,0,0,1-8.71,1.56A21.36,21.36,0,0,1,278,196.09Z" transform="translate(-2.14 -1.48)"/><path d="M305.76,157.77h25v9.14H316.84v5.86h11.78v7.85H316.84v6.57h14.44v9.14H305.76Z" transform="translate(-2.14 -1.48)"/><path d="M341.38,196.09a12.76,12.76,0,0,1-8.13-11.32L343.64,183a7.94,7.94,0,0,0,1.07,3.29,5.57,5.57,0,0,0,2.29,2.12,6.94,6.94,0,0,0,3.14.73,6.53,6.53,0,0,0,2.61-.49,4.32,4.32,0,0,0,1.76-1.29,2.86,2.86,0,0,0,.64-1.83,2.61,2.61,0,0,0-1.14-2.15,10.17,10.17,0,0,0-3.65-1.45l-4.21-1q-6.28-1.29-9.14-4.09a10.47,10.47,0,0,1-2.91-7.69,11.77,11.77,0,0,1,1.9-6.7,12.18,12.18,0,0,1,5.32-4.35,19.45,19.45,0,0,1,8-1.54,18.22,18.22,0,0,1,7.17,1.37,12.82,12.82,0,0,1,5.2,3.93,10.93,10.93,0,0,1,2.23,6l-10.17,2a6.2,6.2,0,0,0-.75-2.61,4.71,4.71,0,0,0-1.65-1.77,4.46,4.46,0,0,0-2.35-.62,4.6,4.6,0,0,0-2,.43,3.28,3.28,0,0,0-1.39,1.16,3,3,0,0,0-.48,1.69,2.62,2.62,0,0,0,1.1,2.18,9.29,9.29,0,0,0,3.49,1.37l4.31.91q6.24,1.29,9.19,4.09a9.92,9.92,0,0,1,2.91,7.69,12.11,12.11,0,0,1-2.05,7.05,12.92,12.92,0,0,1-5.76,4.52,22.32,22.32,0,0,1-8.71,1.56A21.32,21.32,0,0,1,341.38,196.09Z" transform="translate(-2.14 -1.48)"/><path d="M38.08,32.64h19a18.46,18.46,0,0,1,7.17,1.24,9.84,9.84,0,0,1,4.53,3.57,10,10,0,0,1,1.57,5.68,9.21,9.21,0,0,1-.8,3.92,7.54,7.54,0,0,1-2.26,2.85,9.65,9.65,0,0,1-3.55,1.67v.06a8.77,8.77,0,0,1,5.39,3,9.2,9.2,0,0,1,1.91,6,10.21,10.21,0,0,1-1.57,5.73A9.78,9.78,0,0,1,64.89,70a19,19,0,0,1-7.25,1.23H38.08Zm17,15.6a4.26,4.26,0,0,0,2.08-.49,3.25,3.25,0,0,0,1.36-1.31,4.22,4.22,0,0,0,.45-2,3.34,3.34,0,0,0-1.06-2.66A4.18,4.18,0,0,0,55,40.82H49.65v7.42ZM55.19,63a5.51,5.51,0,0,0,2.29-.43A3.22,3.22,0,0,0,59,61.33a4.58,4.58,0,0,0-.62-5.08,4.4,4.4,0,0,0-3.19-1.07H49.65V63Z" transform="translate(-2.14 -1.48)"/><path d="M74.48,32.64H86V61.31H98.51V71.2h-24Z" transform="translate(-2.14 -1.48)"/><path d="M111.51,32.64h14.28L137.67,71.2H125.84l-1.7-6.67H113l-1.76,6.67H99.57Zm11.08,23.93L118.7,41.78h-.1l-4,14.79Z" transform="translate(-2.14 -1.48)"/><path d="M146.09,69.89a17.17,17.17,0,0,1-6.9-7.1A22.9,22.9,0,0,1,136.77,52,24.48,24.48,0,0,1,139,41.08a16.51,16.51,0,0,1,6.5-7.12,19.19,19.19,0,0,1,9.94-2.5,18.77,18.77,0,0,1,8.44,1.83,15.34,15.34,0,0,1,6,5.24,17.35,17.35,0,0,1,2.79,8.09l-10.6,2a11.05,11.05,0,0,0-1.2-3.9,6.88,6.88,0,0,0-2.24-2.47,5.66,5.66,0,0,0-3.17-.89,5.89,5.89,0,0,0-3.83,1.29,8.18,8.18,0,0,0-2.48,3.66,16.16,16.16,0,0,0-.88,5.65,14.27,14.27,0,0,0,1,5.51,8.07,8.07,0,0,0,2.88,3.63,7.43,7.43,0,0,0,4.29,1.29,7.77,7.77,0,0,0,3.92-1,8,8,0,0,0,2.87-2.88,10.35,10.35,0,0,0,1.42-4.36l10.76,1.4a19.78,19.78,0,0,1-3,8.9,16.52,16.52,0,0,1-6.6,5.89,22.56,22.56,0,0,1-19.72-.45Z" transform="translate(-2.14 -1.48)"/><path d="M178.54,32.64H190.1v13h.11l9.32-13h13.54L201,47.38l12.3,23.82H199.91l-6.82-15.06-3,3.77V71.2H178.54Z" transform="translate(-2.14 -1.48)"/><path d="M35.85,94.86H47.52l5.38,27.06H53l5.92-27.06H72.61l5.92,27.06h.16L84,94.86H95.68l-9.91,38.57H71.55L65.79,106.8h-.1L60,133.43H45.7Z" transform="translate(-2.14 -1.48)"/><path d="M105.46,132.16A17.39,17.39,0,0,1,98.4,125a24.56,24.56,0,0,1,0-21.59,17.46,17.46,0,0,1,7.09-7.18,23.41,23.41,0,0,1,21.21,0,18,18,0,0,1,7.06,7.21,22.18,22.18,0,0,1,2.53,10.73A22.44,22.44,0,0,1,133.76,125a17.57,17.57,0,0,1-7.06,7.18,21.79,21.79,0,0,1-10.71,2.5A21.51,21.51,0,0,1,105.46,132.16Zm15.22-8.68a8.19,8.19,0,0,0,3-3.74,15.63,15.63,0,0,0,0-11.16,8.16,8.16,0,0,0-3-3.71,8.39,8.39,0,0,0-4.69-1.29,8,8,0,0,0-4.48,1.29,8.1,8.1,0,0,0-3,3.71,15.49,15.49,0,0,0,0,11.16,8.13,8.13,0,0,0,3,3.74,8,8,0,0,0,4.48,1.29A8.39,8.39,0,0,0,120.68,123.48Z" transform="translate(-2.14 -1.48)"/><path d="M140,94.86H155l8.42,25.44h.06l8.41-25.44h15v38.57H176.57V108.36h-.11l-8.57,25.07h-8.8l-8.63-25h-.11v25H140Z" transform="translate(-2.14 -1.48)"/><path d="M201.35,113.2,189.73,94.86h13.16L209,105.94l6.29-11.08h13.42L216.8,113.2,229,133.43H215.47l-6.45-12-6.23,12H189.52Z" transform="translate(-2.14 -1.48)"/><path d="M231.5,94.86H245l12.2,25h.1v-25h10.55v38.57H254.47l-12.25-24.85h-.11v24.85H231.5Z" transform="translate(-2.14 -1.48)"/></svg>