<?xml version="1.0" encoding="utf-8"?>
<!-- Generator: Adobe Illustrator 24.2.0, SVG Export Plug-In . SVG Version: 6.00 Build 0)  -->
<svg version="1.1" id="Layer_1" xmlns="http://www.w3.org/2000/svg" xmlns:xlink="http://www.w3.org/1999/xlink" x="0px" y="0px"
	 viewBox="0 0 980.1 612.3" style="enable-background:new 0 0 980.1 612.3;" xml:space="preserve">
<style type="text/css">
	.st0{fill:#FFFFFF;}
	.st1{fill:#353535;}
</style>
<rect x="30.3" y="37.6" class="st0" width="915.4" height="529.3"/>
<g>
	<path class="st1" d="M488.8,376.9c-6.3,0-12.4-1.9-17.5-5.5L13.3,55.7C-0.6,46.2-4.1,27.2,5.5,13.3S34.1-4,48,5.5l440.6,303.6
		L929.1,5.5c13.7-9.6,32.6-6.4,42.2,7.3c0.1,0.1,0.2,0.3,0.3,0.4c9.5,13.9,6.2,33.1-7.8,42.5l-458,315.7c-5.1,3.6-11.2,5.5-17.4,5.5
		L488.8,376.9L488.8,376.9z"/>
</g>
<g>
	<path class="st1" d="M949.6,612.3H31c-16.9,0-30.5-13.7-30.5-30.5v-0.1V30.5C0.5,13.7,14.1,0,30.9,0l0,0h918.6
		C966.3,0,980,13.6,980,30.5l0,0v551.1C980.1,598.5,966.5,612.3,949.6,612.3L949.6,612.3z M61.5,551.1h857.4V61.2H61.5V551.1z"/>
</g>
</svg>
