<?xml version="1.0" encoding="utf-8"?>
<!-- Generator: Adobe Illustrator 24.2.0, SVG Export Plug-In . SVG Version: 6.00 Build 0)  -->
<svg version="1.1" id="Layer_2_1_" xmlns="http://www.w3.org/2000/svg" xmlns:xlink="http://www.w3.org/1999/xlink" x="0px" y="0px"
	 viewBox="0 0 245.6 196.4" style="enable-background:new 0 0 245.6 196.4;" xml:space="preserve">
<style type="text/css">
	.st0{fill:#FFFFFF;stroke:#FFFFFF;stroke-width:8.5039;stroke-miterlimit:10;}
	.st1{fill:#FFFFFF;}
</style>
<path class="st0" d="M215.2,180.3H39.4c-6.5,0-15,1.6-15.7-8.1c-0.5-7.3,0-14.8,0-22.1V26.3l-4.5,4.8h207.3l-4.5-4.8v132.4
	C222,165.1,224.3,179.7,215.2,180.3c-5.8,0.4-5.8,9.9,0,9.5c9.2-0.6,15.4-8,15.8-17.6c0.1-1.9,0-3.7,0-5.6V26.3c0-2.6-2-4.7-4.5-4.8
	H19.2c-2.5,0-4.5,2.1-4.5,4.8c0,48.3-0.7,96.7,0,145c0.2,11.8,8,18.5,18.5,18.5h182.1C221,189.8,221,180.3,215.2,180.3z"/>
<path class="st1" d="M13.3,4.7h219c4.8,0,8.6,3.9,8.6,8.6v19.9c0,4.8-3.9,8.6-8.6,8.6h-219c-4.8,0-8.6-3.9-8.6-8.6V13.3
	C4.7,8.6,8.5,4.7,13.3,4.7z"/>
<path class="st1" d="M232.3,37.4H22.7c-3,0-6.2,0.4-9.2,0c-4.5-0.6-4.3-4.1-4.3-7.6c0-5.1-0.2-10.3,0-15.5c0.2-5.5,4.3-5.1,8.3-5.1
	h201.2c4.1,0,8.3-0.1,12.5,0c7.6,0.3,5.3,10.7,5.3,16.1C236.5,29.1,238,37,232.3,37.4c-5.6,0.4-5.8,9.4,0,9
	c7.6-0.6,12.9-5.9,13.1-13.6c0.2-5.2,0-10.4,0-15.6c0-5.9-0.6-11.6-6.2-15c-2.4-1.4-5.2-2.1-8-2c-13.1-0.2-26.1,0-39.2,0H50.4
	c-12.2,0-24.4-0.5-36.6,0C9.5,0.3,5.6,1.9,2.9,5.4c-3.3,4.4-2.7,9.8-2.7,14.9c0,4.7-0.4,9.5,0.1,14.2C1,41.4,6.6,46.1,13.4,46.4
	c10.8,0.5,21.7,0,32.5,0h186.4C238.1,46.4,238.1,37.4,232.3,37.4z"/>
<path class="st1" d="M62.9,109.6v41.5c0,11.5,20,11.5,20,0v-41.5C82.9,98.2,62.9,98.2,62.9,109.6z"/>
<path class="st1" d="M162.8,68.2v82.9c0,11.5,20,11.5,20,0V68.2C182.8,56.7,162.8,56.7,162.8,68.2z"/>
<path class="st1" d="M112.8,89.4v61.7c0,11.5,20,11.5,20,0V89.4C132.8,77.9,112.8,77.9,112.8,89.4z"/>
</svg>
